<svg width="20" height="20" viewBox="0 0 20 20" fill="none" xmlns="http://www.w3.org/2000/svg">
<g clip-path="url(#clip0_9089_314)">
<path fill-rule="evenodd" clip-rule="evenodd" d="M13.0457 3.15986C11.5717 2.50308 9.92485 2.34037 8.3508 2.69601C6.77675 3.05164 5.35983 3.90656 4.31136 5.13327C3.26289 6.35998 2.63905 7.89275 2.53287 9.50297C2.4267 11.1132 2.84387 12.7146 3.72219 14.0684C4.6005 15.4221 5.89289 16.4557 7.40661 17.0149C8.92033 17.5742 10.5743 17.6291 12.1218 17.1716C13.6693 16.714 15.0274 15.7685 15.9936 14.476C16.9599 13.1835 17.4824 11.6134 17.4833 9.99963V9.23345C17.4833 8.76401 17.8639 8.38345 18.3333 8.38345C18.8028 8.38345 19.1833 8.76401 19.1833 9.23345V10.0001C19.1822 11.9804 18.5409 13.9078 17.3552 15.4939C16.1695 17.08 14.5028 18.2403 12.6038 18.8018C10.7047 19.3633 8.67507 19.2959 6.81747 18.6096C4.95988 17.9233 3.37389 16.6549 2.29605 14.9936C1.21821 13.3323 0.706259 11.3671 0.836557 9.39112C0.966855 7.41509 1.73242 5.53413 3.01907 4.02875C4.30572 2.52337 6.04453 1.47423 7.97615 1.0378C9.90778 0.601377 11.9287 0.801047 13.7376 1.60704C14.1664 1.7981 14.3591 2.3006 14.1681 2.7294C13.977 3.1582 13.4745 3.35093 13.0457 3.15986Z" fill="#01B0BB"/>
<path fill-rule="evenodd" clip-rule="evenodd" d="M18.9341 2.7321C19.2662 3.06388 19.2664 3.60207 18.9347 3.93418L10.6013 12.2758C10.4419 12.4354 10.2257 12.525 10.0002 12.5251C9.77468 12.5252 9.5584 12.4356 9.39894 12.2761L6.89894 9.77615C6.56699 9.4442 6.56699 8.90601 6.89894 8.57406C7.23088 8.24212 7.76907 8.24212 8.10102 8.57406L9.99968 10.4727L17.732 2.7327C18.0638 2.40059 18.6019 2.40032 18.9341 2.7321Z" fill="#01B0BB"/>
</g>
<defs>
<clipPath id="clip0_9089_314">
<rect width="20" height="20" fill="white"/>
</clipPath>
</defs>
</svg>
