<svg xmlns="http://www.w3.org/2000/svg" width="24" height="24" viewBox="0 0 16 16" fill="currentColor">
  <path fill-rule="evenodd" d="M1.25 4c0-.41.34-.75.75-.75h12a.75.75 0 0 1 0 1.5H2A.75.75 0 0 1 1.25 4Z" clip-rule="evenodd"/>
  <path fill-rule="evenodd" d="M6.67 2.08a.58.58 0 0 0-.59.59v.58h3.84v-.58a.58.58 0 0 0-.59-.59H6.67Zm4.75 1.17v-.58A2.08 2.08 0 0 0 9.33.58H6.67a2.08 2.08 0 0 0-2.09 2.09v.58H3.33a.75.75 0 0 0-.75.75v9.33a2.08 2.08 0 0 0 2.09 2.09h6.66a2.08 2.08 0 0 0 2.09-2.09V4a.75.75 0 0 0-.75-.75h-1.25Zm-7.34 1.5v8.58a.58.58 0 0 0 .59.59h6.66a.58.58 0 0 0 .59-.59V4.75H4.08Z" clip-rule="evenodd"/>
  <path fill-rule="evenodd" d="M6.67 6.58c.41 0 .75.34.75.75v4a.75.75 0 0 1-1.5 0v-4c0-.41.33-.75.75-.75ZM9.33 6.58c.42 0 .75.34.75.75v4a.75.75 0 0 1-1.5 0v-4c0-.41.34-.75.75-.75Z" clip-rule="evenodd"/>
</svg>
